G04 EAGLE Gerber RS-274X export*
G75*
%MOMM*%
%FSLAX34Y34*%
%LPD*%
%IN*%
%IPPOS*%
%AMOC8*
5,1,8,0,0,1.08239X$1,22.5*%
G01*
%ADD10C,0.254000*%


D10*
X0Y0D02*
X1000000Y0D01*
X1000000Y800000D01*
X0Y800000D01*
X0Y0D01*
X800524Y558850D02*
X801569Y558782D01*
X802608Y558645D01*
X803635Y558440D01*
X804647Y558169D01*
X805639Y557833D01*
X806607Y557432D01*
X807546Y556968D01*
X808454Y556445D01*
X809325Y555863D01*
X810156Y555225D01*
X810943Y554534D01*
X811684Y553793D01*
X812375Y553006D01*
X813013Y552175D01*
X813595Y551304D01*
X814118Y550396D01*
X814582Y549457D01*
X814983Y548489D01*
X815319Y547497D01*
X815590Y546485D01*
X815795Y545458D01*
X815932Y544419D01*
X816000Y543374D01*
X816000Y542326D01*
X815932Y541281D01*
X815795Y540242D01*
X815590Y539215D01*
X815319Y538203D01*
X814983Y537211D01*
X814582Y536243D01*
X814118Y535304D01*
X813595Y534396D01*
X813013Y533525D01*
X812375Y532694D01*
X811684Y531907D01*
X810943Y531166D01*
X810156Y530475D01*
X809325Y529838D01*
X808454Y529256D01*
X807546Y528732D01*
X806607Y528268D01*
X805639Y527867D01*
X804647Y527531D01*
X803635Y527260D01*
X802608Y527055D01*
X801569Y526919D01*
X800524Y526850D01*
X799476Y526850D01*
X798431Y526919D01*
X797392Y527055D01*
X796365Y527260D01*
X795353Y527531D01*
X794361Y527867D01*
X793393Y528268D01*
X792454Y528732D01*
X791546Y529256D01*
X790675Y529838D01*
X789844Y530475D01*
X789057Y531166D01*
X788316Y531907D01*
X787625Y532694D01*
X786988Y533525D01*
X786406Y534396D01*
X785882Y535304D01*
X785418Y536243D01*
X785017Y537211D01*
X784681Y538203D01*
X784410Y539215D01*
X784205Y540242D01*
X784069Y541281D01*
X784000Y542326D01*
X784000Y543374D01*
X784069Y544419D01*
X784205Y545458D01*
X784410Y546485D01*
X784681Y547497D01*
X785017Y548489D01*
X785418Y549457D01*
X785882Y550396D01*
X786406Y551304D01*
X786988Y552175D01*
X787625Y553006D01*
X788316Y553793D01*
X789057Y554534D01*
X789844Y555225D01*
X790675Y555863D01*
X791546Y556445D01*
X792454Y556968D01*
X793393Y557432D01*
X794361Y557833D01*
X795353Y558169D01*
X796365Y558440D01*
X797392Y558645D01*
X798431Y558782D01*
X799476Y558850D01*
X800524Y558850D01*
X800524Y673150D02*
X801569Y673082D01*
X802608Y672945D01*
X803635Y672740D01*
X804647Y672469D01*
X805639Y672133D01*
X806607Y671732D01*
X807546Y671268D01*
X808454Y670745D01*
X809325Y670163D01*
X810156Y669525D01*
X810943Y668834D01*
X811684Y668093D01*
X812375Y667306D01*
X813013Y666475D01*
X813595Y665604D01*
X814118Y664696D01*
X814582Y663757D01*
X814983Y662789D01*
X815319Y661797D01*
X815590Y660785D01*
X815795Y659758D01*
X815932Y658719D01*
X816000Y657674D01*
X816000Y656626D01*
X815932Y655581D01*
X815795Y654542D01*
X815590Y653515D01*
X815319Y652503D01*
X814983Y651511D01*
X814582Y650543D01*
X814118Y649604D01*
X813595Y648696D01*
X813013Y647825D01*
X812375Y646994D01*
X811684Y646207D01*
X810943Y645466D01*
X810156Y644775D01*
X809325Y644138D01*
X808454Y643556D01*
X807546Y643032D01*
X806607Y642568D01*
X805639Y642167D01*
X804647Y641831D01*
X803635Y641560D01*
X802608Y641355D01*
X801569Y641219D01*
X800524Y641150D01*
X799476Y641150D01*
X798431Y641219D01*
X797392Y641355D01*
X796365Y641560D01*
X795353Y641831D01*
X794361Y642167D01*
X793393Y642568D01*
X792454Y643032D01*
X791546Y643556D01*
X790675Y644138D01*
X789844Y644775D01*
X789057Y645466D01*
X788316Y646207D01*
X787625Y646994D01*
X786988Y647825D01*
X786406Y648696D01*
X785882Y649604D01*
X785418Y650543D01*
X785017Y651511D01*
X784681Y652503D01*
X784410Y653515D01*
X784205Y654542D01*
X784069Y655581D01*
X784000Y656626D01*
X784000Y657674D01*
X784069Y658719D01*
X784205Y659758D01*
X784410Y660785D01*
X784681Y661797D01*
X785017Y662789D01*
X785418Y663757D01*
X785882Y664696D01*
X786406Y665604D01*
X786988Y666475D01*
X787625Y667306D01*
X788316Y668093D01*
X789057Y668834D01*
X789844Y669525D01*
X790675Y670163D01*
X791546Y670745D01*
X792454Y671268D01*
X793393Y671732D01*
X794361Y672133D01*
X795353Y672469D01*
X796365Y672740D01*
X797392Y672945D01*
X798431Y673082D01*
X799476Y673150D01*
X800524Y673150D01*
X965000Y49464D02*
X964924Y48396D01*
X964771Y47335D01*
X964543Y46288D01*
X964241Y45260D01*
X963867Y44256D01*
X963422Y43281D01*
X962908Y42341D01*
X962329Y41440D01*
X961687Y40582D01*
X960985Y39772D01*
X960228Y39015D01*
X959418Y38313D01*
X958560Y37671D01*
X957659Y37092D01*
X956719Y36578D01*
X955744Y36133D01*
X954740Y35759D01*
X953712Y35457D01*
X952665Y35229D01*
X951604Y35076D01*
X950536Y35000D01*
X949464Y35000D01*
X948396Y35076D01*
X947335Y35229D01*
X946288Y35457D01*
X945260Y35759D01*
X944256Y36133D01*
X943281Y36578D01*
X942341Y37092D01*
X941440Y37671D01*
X940582Y38313D01*
X939772Y39015D01*
X939015Y39772D01*
X938313Y40582D01*
X937671Y41440D01*
X937092Y42341D01*
X936578Y43281D01*
X936133Y44256D01*
X935759Y45260D01*
X935457Y46288D01*
X935229Y47335D01*
X935076Y48396D01*
X935000Y49464D01*
X935000Y50536D01*
X935076Y51604D01*
X935229Y52665D01*
X935457Y53712D01*
X935759Y54740D01*
X936133Y55744D01*
X936578Y56719D01*
X937092Y57659D01*
X937671Y58560D01*
X938313Y59418D01*
X939015Y60228D01*
X939772Y60985D01*
X940582Y61687D01*
X941440Y62329D01*
X942341Y62908D01*
X943281Y63422D01*
X944256Y63867D01*
X945260Y64241D01*
X946288Y64543D01*
X947335Y64771D01*
X948396Y64924D01*
X949464Y65000D01*
X950536Y65000D01*
X951604Y64924D01*
X952665Y64771D01*
X953712Y64543D01*
X954740Y64241D01*
X955744Y63867D01*
X956719Y63422D01*
X957659Y62908D01*
X958560Y62329D01*
X959418Y61687D01*
X960228Y60985D01*
X960985Y60228D01*
X961687Y59418D01*
X962329Y58560D01*
X962908Y57659D01*
X963422Y56719D01*
X963867Y55744D01*
X964241Y54740D01*
X964543Y53712D01*
X964771Y52665D01*
X964924Y51604D01*
X965000Y50536D01*
X965000Y49464D01*
X515000Y49464D02*
X514924Y48396D01*
X514771Y47335D01*
X514543Y46288D01*
X514241Y45260D01*
X513867Y44256D01*
X513422Y43281D01*
X512908Y42341D01*
X512329Y41440D01*
X511687Y40582D01*
X510985Y39772D01*
X510228Y39015D01*
X509418Y38313D01*
X508560Y37671D01*
X507659Y37092D01*
X506719Y36578D01*
X505744Y36133D01*
X504740Y35759D01*
X503712Y35457D01*
X502665Y35229D01*
X501604Y35076D01*
X500536Y35000D01*
X499464Y35000D01*
X498396Y35076D01*
X497335Y35229D01*
X496288Y35457D01*
X495260Y35759D01*
X494256Y36133D01*
X493281Y36578D01*
X492341Y37092D01*
X491440Y37671D01*
X490582Y38313D01*
X489772Y39015D01*
X489015Y39772D01*
X488313Y40582D01*
X487671Y41440D01*
X487092Y42341D01*
X486578Y43281D01*
X486133Y44256D01*
X485759Y45260D01*
X485457Y46288D01*
X485229Y47335D01*
X485076Y48396D01*
X485000Y49464D01*
X485000Y50536D01*
X485076Y51604D01*
X485229Y52665D01*
X485457Y53712D01*
X485759Y54740D01*
X486133Y55744D01*
X486578Y56719D01*
X487092Y57659D01*
X487671Y58560D01*
X488313Y59418D01*
X489015Y60228D01*
X489772Y60985D01*
X490582Y61687D01*
X491440Y62329D01*
X492341Y62908D01*
X493281Y63422D01*
X494256Y63867D01*
X495260Y64241D01*
X496288Y64543D01*
X497335Y64771D01*
X498396Y64924D01*
X499464Y65000D01*
X500536Y65000D01*
X501604Y64924D01*
X502665Y64771D01*
X503712Y64543D01*
X504740Y64241D01*
X505744Y63867D01*
X506719Y63422D01*
X507659Y62908D01*
X508560Y62329D01*
X509418Y61687D01*
X510228Y60985D01*
X510985Y60228D01*
X511687Y59418D01*
X512329Y58560D01*
X512908Y57659D01*
X513422Y56719D01*
X513867Y55744D01*
X514241Y54740D01*
X514543Y53712D01*
X514771Y52665D01*
X514924Y51604D01*
X515000Y50536D01*
X515000Y49464D01*
X65000Y49464D02*
X64924Y48396D01*
X64771Y47335D01*
X64543Y46288D01*
X64241Y45260D01*
X63867Y44256D01*
X63422Y43281D01*
X62908Y42341D01*
X62329Y41440D01*
X61687Y40582D01*
X60985Y39772D01*
X60228Y39015D01*
X59418Y38313D01*
X58560Y37671D01*
X57659Y37092D01*
X56719Y36578D01*
X55744Y36133D01*
X54740Y35759D01*
X53712Y35457D01*
X52665Y35229D01*
X51604Y35076D01*
X50536Y35000D01*
X49464Y35000D01*
X48396Y35076D01*
X47335Y35229D01*
X46288Y35457D01*
X45260Y35759D01*
X44256Y36133D01*
X43281Y36578D01*
X42341Y37092D01*
X41440Y37671D01*
X40582Y38313D01*
X39772Y39015D01*
X39015Y39772D01*
X38313Y40582D01*
X37671Y41440D01*
X37092Y42341D01*
X36578Y43281D01*
X36133Y44256D01*
X35759Y45260D01*
X35457Y46288D01*
X35229Y47335D01*
X35076Y48396D01*
X35000Y49464D01*
X35000Y50536D01*
X35076Y51604D01*
X35229Y52665D01*
X35457Y53712D01*
X35759Y54740D01*
X36133Y55744D01*
X36578Y56719D01*
X37092Y57659D01*
X37671Y58560D01*
X38313Y59418D01*
X39015Y60228D01*
X39772Y60985D01*
X40582Y61687D01*
X41440Y62329D01*
X42341Y62908D01*
X43281Y63422D01*
X44256Y63867D01*
X45260Y64241D01*
X46288Y64543D01*
X47335Y64771D01*
X48396Y64924D01*
X49464Y65000D01*
X50536Y65000D01*
X51604Y64924D01*
X52665Y64771D01*
X53712Y64543D01*
X54740Y64241D01*
X55744Y63867D01*
X56719Y63422D01*
X57659Y62908D01*
X58560Y62329D01*
X59418Y61687D01*
X60228Y60985D01*
X60985Y60228D01*
X61687Y59418D01*
X62329Y58560D01*
X62908Y57659D01*
X63422Y56719D01*
X63867Y55744D01*
X64241Y54740D01*
X64543Y53712D01*
X64771Y52665D01*
X64924Y51604D01*
X65000Y50536D01*
X65000Y49464D01*
X965000Y749464D02*
X964924Y748396D01*
X964771Y747335D01*
X964543Y746288D01*
X964241Y745260D01*
X963867Y744256D01*
X963422Y743281D01*
X962908Y742341D01*
X962329Y741440D01*
X961687Y740582D01*
X960985Y739772D01*
X960228Y739015D01*
X959418Y738313D01*
X958560Y737671D01*
X957659Y737092D01*
X956719Y736578D01*
X955744Y736133D01*
X954740Y735759D01*
X953712Y735457D01*
X952665Y735229D01*
X951604Y735076D01*
X950536Y735000D01*
X949464Y735000D01*
X948396Y735076D01*
X947335Y735229D01*
X946288Y735457D01*
X945260Y735759D01*
X944256Y736133D01*
X943281Y736578D01*
X942341Y737092D01*
X941440Y737671D01*
X940582Y738313D01*
X939772Y739015D01*
X939015Y739772D01*
X938313Y740582D01*
X937671Y741440D01*
X937092Y742341D01*
X936578Y743281D01*
X936133Y744256D01*
X935759Y745260D01*
X935457Y746288D01*
X935229Y747335D01*
X935076Y748396D01*
X935000Y749464D01*
X935000Y750536D01*
X935076Y751604D01*
X935229Y752665D01*
X935457Y753712D01*
X935759Y754740D01*
X936133Y755744D01*
X936578Y756719D01*
X937092Y757659D01*
X937671Y758560D01*
X938313Y759418D01*
X939015Y760228D01*
X939772Y760985D01*
X940582Y761687D01*
X941440Y762329D01*
X942341Y762908D01*
X943281Y763422D01*
X944256Y763867D01*
X945260Y764241D01*
X946288Y764543D01*
X947335Y764771D01*
X948396Y764924D01*
X949464Y765000D01*
X950536Y765000D01*
X951604Y764924D01*
X952665Y764771D01*
X953712Y764543D01*
X954740Y764241D01*
X955744Y763867D01*
X956719Y763422D01*
X957659Y762908D01*
X958560Y762329D01*
X959418Y761687D01*
X960228Y760985D01*
X960985Y760228D01*
X961687Y759418D01*
X962329Y758560D01*
X962908Y757659D01*
X963422Y756719D01*
X963867Y755744D01*
X964241Y754740D01*
X964543Y753712D01*
X964771Y752665D01*
X964924Y751604D01*
X965000Y750536D01*
X965000Y749464D01*
X515000Y749464D02*
X514924Y748396D01*
X514771Y747335D01*
X514543Y746288D01*
X514241Y745260D01*
X513867Y744256D01*
X513422Y743281D01*
X512908Y742341D01*
X512329Y741440D01*
X511687Y740582D01*
X510985Y739772D01*
X510228Y739015D01*
X509418Y738313D01*
X508560Y737671D01*
X507659Y737092D01*
X506719Y736578D01*
X505744Y736133D01*
X504740Y735759D01*
X503712Y735457D01*
X502665Y735229D01*
X501604Y735076D01*
X500536Y735000D01*
X499464Y735000D01*
X498396Y735076D01*
X497335Y735229D01*
X496288Y735457D01*
X495260Y735759D01*
X494256Y736133D01*
X493281Y736578D01*
X492341Y737092D01*
X491440Y737671D01*
X490582Y738313D01*
X489772Y739015D01*
X489015Y739772D01*
X488313Y740582D01*
X487671Y741440D01*
X487092Y742341D01*
X486578Y743281D01*
X486133Y744256D01*
X485759Y745260D01*
X485457Y746288D01*
X485229Y747335D01*
X485076Y748396D01*
X485000Y749464D01*
X485000Y750536D01*
X485076Y751604D01*
X485229Y752665D01*
X485457Y753712D01*
X485759Y754740D01*
X486133Y755744D01*
X486578Y756719D01*
X487092Y757659D01*
X487671Y758560D01*
X488313Y759418D01*
X489015Y760228D01*
X489772Y760985D01*
X490582Y761687D01*
X491440Y762329D01*
X492341Y762908D01*
X493281Y763422D01*
X494256Y763867D01*
X495260Y764241D01*
X496288Y764543D01*
X497335Y764771D01*
X498396Y764924D01*
X499464Y765000D01*
X500536Y765000D01*
X501604Y764924D01*
X502665Y764771D01*
X503712Y764543D01*
X504740Y764241D01*
X505744Y763867D01*
X506719Y763422D01*
X507659Y762908D01*
X508560Y762329D01*
X509418Y761687D01*
X510228Y760985D01*
X510985Y760228D01*
X511687Y759418D01*
X512329Y758560D01*
X512908Y757659D01*
X513422Y756719D01*
X513867Y755744D01*
X514241Y754740D01*
X514543Y753712D01*
X514771Y752665D01*
X514924Y751604D01*
X515000Y750536D01*
X515000Y749464D01*
X65000Y749464D02*
X64924Y748396D01*
X64771Y747335D01*
X64543Y746288D01*
X64241Y745260D01*
X63867Y744256D01*
X63422Y743281D01*
X62908Y742341D01*
X62329Y741440D01*
X61687Y740582D01*
X60985Y739772D01*
X60228Y739015D01*
X59418Y738313D01*
X58560Y737671D01*
X57659Y737092D01*
X56719Y736578D01*
X55744Y736133D01*
X54740Y735759D01*
X53712Y735457D01*
X52665Y735229D01*
X51604Y735076D01*
X50536Y735000D01*
X49464Y735000D01*
X48396Y735076D01*
X47335Y735229D01*
X46288Y735457D01*
X45260Y735759D01*
X44256Y736133D01*
X43281Y736578D01*
X42341Y737092D01*
X41440Y737671D01*
X40582Y738313D01*
X39772Y739015D01*
X39015Y739772D01*
X38313Y740582D01*
X37671Y741440D01*
X37092Y742341D01*
X36578Y743281D01*
X36133Y744256D01*
X35759Y745260D01*
X35457Y746288D01*
X35229Y747335D01*
X35076Y748396D01*
X35000Y749464D01*
X35000Y750536D01*
X35076Y751604D01*
X35229Y752665D01*
X35457Y753712D01*
X35759Y754740D01*
X36133Y755744D01*
X36578Y756719D01*
X37092Y757659D01*
X37671Y758560D01*
X38313Y759418D01*
X39015Y760228D01*
X39772Y760985D01*
X40582Y761687D01*
X41440Y762329D01*
X42341Y762908D01*
X43281Y763422D01*
X44256Y763867D01*
X45260Y764241D01*
X46288Y764543D01*
X47335Y764771D01*
X48396Y764924D01*
X49464Y765000D01*
X50536Y765000D01*
X51604Y764924D01*
X52665Y764771D01*
X53712Y764543D01*
X54740Y764241D01*
X55744Y763867D01*
X56719Y763422D01*
X57659Y762908D01*
X58560Y762329D01*
X59418Y761687D01*
X60228Y760985D01*
X60985Y760228D01*
X61687Y759418D01*
X62329Y758560D01*
X62908Y757659D01*
X63422Y756719D01*
X63867Y755744D01*
X64241Y754740D01*
X64543Y753712D01*
X64771Y752665D01*
X64924Y751604D01*
X65000Y750536D01*
X65000Y749464D01*
X600524Y558850D02*
X601569Y558782D01*
X602608Y558645D01*
X603635Y558440D01*
X604647Y558169D01*
X605639Y557833D01*
X606607Y557432D01*
X607546Y556968D01*
X608454Y556445D01*
X609325Y555863D01*
X610156Y555225D01*
X610943Y554534D01*
X611684Y553793D01*
X612375Y553006D01*
X613013Y552175D01*
X613595Y551304D01*
X614118Y550396D01*
X614582Y549457D01*
X614983Y548489D01*
X615319Y547497D01*
X615590Y546485D01*
X615795Y545458D01*
X615932Y544419D01*
X616000Y543374D01*
X616000Y542326D01*
X615932Y541281D01*
X615795Y540242D01*
X615590Y539215D01*
X615319Y538203D01*
X614983Y537211D01*
X614582Y536243D01*
X614118Y535304D01*
X613595Y534396D01*
X613013Y533525D01*
X612375Y532694D01*
X611684Y531907D01*
X610943Y531166D01*
X610156Y530475D01*
X609325Y529838D01*
X608454Y529256D01*
X607546Y528732D01*
X606607Y528268D01*
X605639Y527867D01*
X604647Y527531D01*
X603635Y527260D01*
X602608Y527055D01*
X601569Y526919D01*
X600524Y526850D01*
X599476Y526850D01*
X598431Y526919D01*
X597392Y527055D01*
X596365Y527260D01*
X595353Y527531D01*
X594361Y527867D01*
X593393Y528268D01*
X592454Y528732D01*
X591546Y529256D01*
X590675Y529838D01*
X589844Y530475D01*
X589057Y531166D01*
X588316Y531907D01*
X587625Y532694D01*
X586988Y533525D01*
X586406Y534396D01*
X585882Y535304D01*
X585418Y536243D01*
X585017Y537211D01*
X584681Y538203D01*
X584410Y539215D01*
X584205Y540242D01*
X584069Y541281D01*
X584000Y542326D01*
X584000Y543374D01*
X584069Y544419D01*
X584205Y545458D01*
X584410Y546485D01*
X584681Y547497D01*
X585017Y548489D01*
X585418Y549457D01*
X585882Y550396D01*
X586406Y551304D01*
X586988Y552175D01*
X587625Y553006D01*
X588316Y553793D01*
X589057Y554534D01*
X589844Y555225D01*
X590675Y555863D01*
X591546Y556445D01*
X592454Y556968D01*
X593393Y557432D01*
X594361Y557833D01*
X595353Y558169D01*
X596365Y558440D01*
X597392Y558645D01*
X598431Y558782D01*
X599476Y558850D01*
X600524Y558850D01*
X600524Y673150D02*
X601569Y673082D01*
X602608Y672945D01*
X603635Y672740D01*
X604647Y672469D01*
X605639Y672133D01*
X606607Y671732D01*
X607546Y671268D01*
X608454Y670745D01*
X609325Y670163D01*
X610156Y669525D01*
X610943Y668834D01*
X611684Y668093D01*
X612375Y667306D01*
X613013Y666475D01*
X613595Y665604D01*
X614118Y664696D01*
X614582Y663757D01*
X614983Y662789D01*
X615319Y661797D01*
X615590Y660785D01*
X615795Y659758D01*
X615932Y658719D01*
X616000Y657674D01*
X616000Y656626D01*
X615932Y655581D01*
X615795Y654542D01*
X615590Y653515D01*
X615319Y652503D01*
X614983Y651511D01*
X614582Y650543D01*
X614118Y649604D01*
X613595Y648696D01*
X613013Y647825D01*
X612375Y646994D01*
X611684Y646207D01*
X610943Y645466D01*
X610156Y644775D01*
X609325Y644138D01*
X608454Y643556D01*
X607546Y643032D01*
X606607Y642568D01*
X605639Y642167D01*
X604647Y641831D01*
X603635Y641560D01*
X602608Y641355D01*
X601569Y641219D01*
X600524Y641150D01*
X599476Y641150D01*
X598431Y641219D01*
X597392Y641355D01*
X596365Y641560D01*
X595353Y641831D01*
X594361Y642167D01*
X593393Y642568D01*
X592454Y643032D01*
X591546Y643556D01*
X590675Y644138D01*
X589844Y644775D01*
X589057Y645466D01*
X588316Y646207D01*
X587625Y646994D01*
X586988Y647825D01*
X586406Y648696D01*
X585882Y649604D01*
X585418Y650543D01*
X585017Y651511D01*
X584681Y652503D01*
X584410Y653515D01*
X584205Y654542D01*
X584069Y655581D01*
X584000Y656626D01*
X584000Y657674D01*
X584069Y658719D01*
X584205Y659758D01*
X584410Y660785D01*
X584681Y661797D01*
X585017Y662789D01*
X585418Y663757D01*
X585882Y664696D01*
X586406Y665604D01*
X586988Y666475D01*
X587625Y667306D01*
X588316Y668093D01*
X589057Y668834D01*
X589844Y669525D01*
X590675Y670163D01*
X591546Y670745D01*
X592454Y671268D01*
X593393Y671732D01*
X594361Y672133D01*
X595353Y672469D01*
X596365Y672740D01*
X597392Y672945D01*
X598431Y673082D01*
X599476Y673150D01*
X600524Y673150D01*
X400524Y558850D02*
X401569Y558782D01*
X402608Y558645D01*
X403635Y558440D01*
X404647Y558169D01*
X405639Y557833D01*
X406607Y557432D01*
X407546Y556968D01*
X408454Y556445D01*
X409325Y555863D01*
X410156Y555225D01*
X410943Y554534D01*
X411684Y553793D01*
X412375Y553006D01*
X413013Y552175D01*
X413595Y551304D01*
X414118Y550396D01*
X414582Y549457D01*
X414983Y548489D01*
X415319Y547497D01*
X415590Y546485D01*
X415795Y545458D01*
X415932Y544419D01*
X416000Y543374D01*
X416000Y542326D01*
X415932Y541281D01*
X415795Y540242D01*
X415590Y539215D01*
X415319Y538203D01*
X414983Y537211D01*
X414582Y536243D01*
X414118Y535304D01*
X413595Y534396D01*
X413013Y533525D01*
X412375Y532694D01*
X411684Y531907D01*
X410943Y531166D01*
X410156Y530475D01*
X409325Y529838D01*
X408454Y529256D01*
X407546Y528732D01*
X406607Y528268D01*
X405639Y527867D01*
X404647Y527531D01*
X403635Y527260D01*
X402608Y527055D01*
X401569Y526919D01*
X400524Y526850D01*
X399476Y526850D01*
X398431Y526919D01*
X397392Y527055D01*
X396365Y527260D01*
X395353Y527531D01*
X394361Y527867D01*
X393393Y528268D01*
X392454Y528732D01*
X391546Y529256D01*
X390675Y529838D01*
X389844Y530475D01*
X389057Y531166D01*
X388316Y531907D01*
X387625Y532694D01*
X386988Y533525D01*
X386406Y534396D01*
X385882Y535304D01*
X385418Y536243D01*
X385017Y537211D01*
X384681Y538203D01*
X384410Y539215D01*
X384205Y540242D01*
X384069Y541281D01*
X384000Y542326D01*
X384000Y543374D01*
X384069Y544419D01*
X384205Y545458D01*
X384410Y546485D01*
X384681Y547497D01*
X385017Y548489D01*
X385418Y549457D01*
X385882Y550396D01*
X386406Y551304D01*
X386988Y552175D01*
X387625Y553006D01*
X388316Y553793D01*
X389057Y554534D01*
X389844Y555225D01*
X390675Y555863D01*
X391546Y556445D01*
X392454Y556968D01*
X393393Y557432D01*
X394361Y557833D01*
X395353Y558169D01*
X396365Y558440D01*
X397392Y558645D01*
X398431Y558782D01*
X399476Y558850D01*
X400524Y558850D01*
X400524Y673150D02*
X401569Y673082D01*
X402608Y672945D01*
X403635Y672740D01*
X404647Y672469D01*
X405639Y672133D01*
X406607Y671732D01*
X407546Y671268D01*
X408454Y670745D01*
X409325Y670163D01*
X410156Y669525D01*
X410943Y668834D01*
X411684Y668093D01*
X412375Y667306D01*
X413013Y666475D01*
X413595Y665604D01*
X414118Y664696D01*
X414582Y663757D01*
X414983Y662789D01*
X415319Y661797D01*
X415590Y660785D01*
X415795Y659758D01*
X415932Y658719D01*
X416000Y657674D01*
X416000Y656626D01*
X415932Y655581D01*
X415795Y654542D01*
X415590Y653515D01*
X415319Y652503D01*
X414983Y651511D01*
X414582Y650543D01*
X414118Y649604D01*
X413595Y648696D01*
X413013Y647825D01*
X412375Y646994D01*
X411684Y646207D01*
X410943Y645466D01*
X410156Y644775D01*
X409325Y644138D01*
X408454Y643556D01*
X407546Y643032D01*
X406607Y642568D01*
X405639Y642167D01*
X404647Y641831D01*
X403635Y641560D01*
X402608Y641355D01*
X401569Y641219D01*
X400524Y641150D01*
X399476Y641150D01*
X398431Y641219D01*
X397392Y641355D01*
X396365Y641560D01*
X395353Y641831D01*
X394361Y642167D01*
X393393Y642568D01*
X392454Y643032D01*
X391546Y643556D01*
X390675Y644138D01*
X389844Y644775D01*
X389057Y645466D01*
X388316Y646207D01*
X387625Y646994D01*
X386988Y647825D01*
X386406Y648696D01*
X385882Y649604D01*
X385418Y650543D01*
X385017Y651511D01*
X384681Y652503D01*
X384410Y653515D01*
X384205Y654542D01*
X384069Y655581D01*
X384000Y656626D01*
X384000Y657674D01*
X384069Y658719D01*
X384205Y659758D01*
X384410Y660785D01*
X384681Y661797D01*
X385017Y662789D01*
X385418Y663757D01*
X385882Y664696D01*
X386406Y665604D01*
X386988Y666475D01*
X387625Y667306D01*
X388316Y668093D01*
X389057Y668834D01*
X389844Y669525D01*
X390675Y670163D01*
X391546Y670745D01*
X392454Y671268D01*
X393393Y671732D01*
X394361Y672133D01*
X395353Y672469D01*
X396365Y672740D01*
X397392Y672945D01*
X398431Y673082D01*
X399476Y673150D01*
X400524Y673150D01*
X200524Y558850D02*
X201569Y558782D01*
X202608Y558645D01*
X203635Y558440D01*
X204647Y558169D01*
X205639Y557833D01*
X206607Y557432D01*
X207546Y556968D01*
X208454Y556445D01*
X209325Y555863D01*
X210156Y555225D01*
X210943Y554534D01*
X211684Y553793D01*
X212375Y553006D01*
X213013Y552175D01*
X213595Y551304D01*
X214118Y550396D01*
X214582Y549457D01*
X214983Y548489D01*
X215319Y547497D01*
X215590Y546485D01*
X215795Y545458D01*
X215932Y544419D01*
X216000Y543374D01*
X216000Y542326D01*
X215932Y541281D01*
X215795Y540242D01*
X215590Y539215D01*
X215319Y538203D01*
X214983Y537211D01*
X214582Y536243D01*
X214118Y535304D01*
X213595Y534396D01*
X213013Y533525D01*
X212375Y532694D01*
X211684Y531907D01*
X210943Y531166D01*
X210156Y530475D01*
X209325Y529838D01*
X208454Y529256D01*
X207546Y528732D01*
X206607Y528268D01*
X205639Y527867D01*
X204647Y527531D01*
X203635Y527260D01*
X202608Y527055D01*
X201569Y526919D01*
X200524Y526850D01*
X199476Y526850D01*
X198431Y526919D01*
X197392Y527055D01*
X196365Y527260D01*
X195353Y527531D01*
X194361Y527867D01*
X193393Y528268D01*
X192454Y528732D01*
X191546Y529256D01*
X190675Y529838D01*
X189844Y530475D01*
X189057Y531166D01*
X188316Y531907D01*
X187625Y532694D01*
X186988Y533525D01*
X186406Y534396D01*
X185882Y535304D01*
X185418Y536243D01*
X185017Y537211D01*
X184681Y538203D01*
X184410Y539215D01*
X184205Y540242D01*
X184069Y541281D01*
X184000Y542326D01*
X184000Y543374D01*
X184069Y544419D01*
X184205Y545458D01*
X184410Y546485D01*
X184681Y547497D01*
X185017Y548489D01*
X185418Y549457D01*
X185882Y550396D01*
X186406Y551304D01*
X186988Y552175D01*
X187625Y553006D01*
X188316Y553793D01*
X189057Y554534D01*
X189844Y555225D01*
X190675Y555863D01*
X191546Y556445D01*
X192454Y556968D01*
X193393Y557432D01*
X194361Y557833D01*
X195353Y558169D01*
X196365Y558440D01*
X197392Y558645D01*
X198431Y558782D01*
X199476Y558850D01*
X200524Y558850D01*
X200524Y673150D02*
X201569Y673082D01*
X202608Y672945D01*
X203635Y672740D01*
X204647Y672469D01*
X205639Y672133D01*
X206607Y671732D01*
X207546Y671268D01*
X208454Y670745D01*
X209325Y670163D01*
X210156Y669525D01*
X210943Y668834D01*
X211684Y668093D01*
X212375Y667306D01*
X213013Y666475D01*
X213595Y665604D01*
X214118Y664696D01*
X214582Y663757D01*
X214983Y662789D01*
X215319Y661797D01*
X215590Y660785D01*
X215795Y659758D01*
X215932Y658719D01*
X216000Y657674D01*
X216000Y656626D01*
X215932Y655581D01*
X215795Y654542D01*
X215590Y653515D01*
X215319Y652503D01*
X214983Y651511D01*
X214582Y650543D01*
X214118Y649604D01*
X213595Y648696D01*
X213013Y647825D01*
X212375Y646994D01*
X211684Y646207D01*
X210943Y645466D01*
X210156Y644775D01*
X209325Y644138D01*
X208454Y643556D01*
X207546Y643032D01*
X206607Y642568D01*
X205639Y642167D01*
X204647Y641831D01*
X203635Y641560D01*
X202608Y641355D01*
X201569Y641219D01*
X200524Y641150D01*
X199476Y641150D01*
X198431Y641219D01*
X197392Y641355D01*
X196365Y641560D01*
X195353Y641831D01*
X194361Y642167D01*
X193393Y642568D01*
X192454Y643032D01*
X191546Y643556D01*
X190675Y644138D01*
X189844Y644775D01*
X189057Y645466D01*
X188316Y646207D01*
X187625Y646994D01*
X186988Y647825D01*
X186406Y648696D01*
X185882Y649604D01*
X185418Y650543D01*
X185017Y651511D01*
X184681Y652503D01*
X184410Y653515D01*
X184205Y654542D01*
X184069Y655581D01*
X184000Y656626D01*
X184000Y657674D01*
X184069Y658719D01*
X184205Y659758D01*
X184410Y660785D01*
X184681Y661797D01*
X185017Y662789D01*
X185418Y663757D01*
X185882Y664696D01*
X186406Y665604D01*
X186988Y666475D01*
X187625Y667306D01*
X188316Y668093D01*
X189057Y668834D01*
X189844Y669525D01*
X190675Y670163D01*
X191546Y670745D01*
X192454Y671268D01*
X193393Y671732D01*
X194361Y672133D01*
X195353Y672469D01*
X196365Y672740D01*
X197392Y672945D01*
X198431Y673082D01*
X199476Y673150D01*
X200524Y673150D01*
X200524Y358850D02*
X201569Y358782D01*
X202608Y358645D01*
X203635Y358440D01*
X204647Y358169D01*
X205639Y357833D01*
X206607Y357432D01*
X207546Y356968D01*
X208454Y356445D01*
X209325Y355863D01*
X210156Y355225D01*
X210943Y354534D01*
X211684Y353793D01*
X212375Y353006D01*
X213013Y352175D01*
X213595Y351304D01*
X214118Y350396D01*
X214582Y349457D01*
X214983Y348489D01*
X215319Y347497D01*
X215590Y346485D01*
X215795Y345458D01*
X215932Y344419D01*
X216000Y343374D01*
X216000Y342326D01*
X215932Y341281D01*
X215795Y340242D01*
X215590Y339215D01*
X215319Y338203D01*
X214983Y337211D01*
X214582Y336243D01*
X214118Y335304D01*
X213595Y334396D01*
X213013Y333525D01*
X212375Y332694D01*
X211684Y331907D01*
X210943Y331166D01*
X210156Y330475D01*
X209325Y329838D01*
X208454Y329256D01*
X207546Y328732D01*
X206607Y328268D01*
X205639Y327867D01*
X204647Y327531D01*
X203635Y327260D01*
X202608Y327055D01*
X201569Y326919D01*
X200524Y326850D01*
X199476Y326850D01*
X198431Y326919D01*
X197392Y327055D01*
X196365Y327260D01*
X195353Y327531D01*
X194361Y327867D01*
X193393Y328268D01*
X192454Y328732D01*
X191546Y329256D01*
X190675Y329838D01*
X189844Y330475D01*
X189057Y331166D01*
X188316Y331907D01*
X187625Y332694D01*
X186988Y333525D01*
X186406Y334396D01*
X185882Y335304D01*
X185418Y336243D01*
X185017Y337211D01*
X184681Y338203D01*
X184410Y339215D01*
X184205Y340242D01*
X184069Y341281D01*
X184000Y342326D01*
X184000Y343374D01*
X184069Y344419D01*
X184205Y345458D01*
X184410Y346485D01*
X184681Y347497D01*
X185017Y348489D01*
X185418Y349457D01*
X185882Y350396D01*
X186406Y351304D01*
X186988Y352175D01*
X187625Y353006D01*
X188316Y353793D01*
X189057Y354534D01*
X189844Y355225D01*
X190675Y355863D01*
X191546Y356445D01*
X192454Y356968D01*
X193393Y357432D01*
X194361Y357833D01*
X195353Y358169D01*
X196365Y358440D01*
X197392Y358645D01*
X198431Y358782D01*
X199476Y358850D01*
X200524Y358850D01*
X200524Y473150D02*
X201569Y473082D01*
X202608Y472945D01*
X203635Y472740D01*
X204647Y472469D01*
X205639Y472133D01*
X206607Y471732D01*
X207546Y471268D01*
X208454Y470745D01*
X209325Y470163D01*
X210156Y469525D01*
X210943Y468834D01*
X211684Y468093D01*
X212375Y467306D01*
X213013Y466475D01*
X213595Y465604D01*
X214118Y464696D01*
X214582Y463757D01*
X214983Y462789D01*
X215319Y461797D01*
X215590Y460785D01*
X215795Y459758D01*
X215932Y458719D01*
X216000Y457674D01*
X216000Y456626D01*
X215932Y455581D01*
X215795Y454542D01*
X215590Y453515D01*
X215319Y452503D01*
X214983Y451511D01*
X214582Y450543D01*
X214118Y449604D01*
X213595Y448696D01*
X213013Y447825D01*
X212375Y446994D01*
X211684Y446207D01*
X210943Y445466D01*
X210156Y444775D01*
X209325Y444138D01*
X208454Y443556D01*
X207546Y443032D01*
X206607Y442568D01*
X205639Y442167D01*
X204647Y441831D01*
X203635Y441560D01*
X202608Y441355D01*
X201569Y441219D01*
X200524Y441150D01*
X199476Y441150D01*
X198431Y441219D01*
X197392Y441355D01*
X196365Y441560D01*
X195353Y441831D01*
X194361Y442167D01*
X193393Y442568D01*
X192454Y443032D01*
X191546Y443556D01*
X190675Y444138D01*
X189844Y444775D01*
X189057Y445466D01*
X188316Y446207D01*
X187625Y446994D01*
X186988Y447825D01*
X186406Y448696D01*
X185882Y449604D01*
X185418Y450543D01*
X185017Y451511D01*
X184681Y452503D01*
X184410Y453515D01*
X184205Y454542D01*
X184069Y455581D01*
X184000Y456626D01*
X184000Y457674D01*
X184069Y458719D01*
X184205Y459758D01*
X184410Y460785D01*
X184681Y461797D01*
X185017Y462789D01*
X185418Y463757D01*
X185882Y464696D01*
X186406Y465604D01*
X186988Y466475D01*
X187625Y467306D01*
X188316Y468093D01*
X189057Y468834D01*
X189844Y469525D01*
X190675Y470163D01*
X191546Y470745D01*
X192454Y471268D01*
X193393Y471732D01*
X194361Y472133D01*
X195353Y472469D01*
X196365Y472740D01*
X197392Y472945D01*
X198431Y473082D01*
X199476Y473150D01*
X200524Y473150D01*
X400524Y358850D02*
X401569Y358782D01*
X402608Y358645D01*
X403635Y358440D01*
X404647Y358169D01*
X405639Y357833D01*
X406607Y357432D01*
X407546Y356968D01*
X408454Y356445D01*
X409325Y355863D01*
X410156Y355225D01*
X410943Y354534D01*
X411684Y353793D01*
X412375Y353006D01*
X413013Y352175D01*
X413595Y351304D01*
X414118Y350396D01*
X414582Y349457D01*
X414983Y348489D01*
X415319Y347497D01*
X415590Y346485D01*
X415795Y345458D01*
X415932Y344419D01*
X416000Y343374D01*
X416000Y342326D01*
X415932Y341281D01*
X415795Y340242D01*
X415590Y339215D01*
X415319Y338203D01*
X414983Y337211D01*
X414582Y336243D01*
X414118Y335304D01*
X413595Y334396D01*
X413013Y333525D01*
X412375Y332694D01*
X411684Y331907D01*
X410943Y331166D01*
X410156Y330475D01*
X409325Y329838D01*
X408454Y329256D01*
X407546Y328732D01*
X406607Y328268D01*
X405639Y327867D01*
X404647Y327531D01*
X403635Y327260D01*
X402608Y327055D01*
X401569Y326919D01*
X400524Y326850D01*
X399476Y326850D01*
X398431Y326919D01*
X397392Y327055D01*
X396365Y327260D01*
X395353Y327531D01*
X394361Y327867D01*
X393393Y328268D01*
X392454Y328732D01*
X391546Y329256D01*
X390675Y329838D01*
X389844Y330475D01*
X389057Y331166D01*
X388316Y331907D01*
X387625Y332694D01*
X386988Y333525D01*
X386406Y334396D01*
X385882Y335304D01*
X385418Y336243D01*
X385017Y337211D01*
X384681Y338203D01*
X384410Y339215D01*
X384205Y340242D01*
X384069Y341281D01*
X384000Y342326D01*
X384000Y343374D01*
X384069Y344419D01*
X384205Y345458D01*
X384410Y346485D01*
X384681Y347497D01*
X385017Y348489D01*
X385418Y349457D01*
X385882Y350396D01*
X386406Y351304D01*
X386988Y352175D01*
X387625Y353006D01*
X388316Y353793D01*
X389057Y354534D01*
X389844Y355225D01*
X390675Y355863D01*
X391546Y356445D01*
X392454Y356968D01*
X393393Y357432D01*
X394361Y357833D01*
X395353Y358169D01*
X396365Y358440D01*
X397392Y358645D01*
X398431Y358782D01*
X399476Y358850D01*
X400524Y358850D01*
X400524Y473150D02*
X401569Y473082D01*
X402608Y472945D01*
X403635Y472740D01*
X404647Y472469D01*
X405639Y472133D01*
X406607Y471732D01*
X407546Y471268D01*
X408454Y470745D01*
X409325Y470163D01*
X410156Y469525D01*
X410943Y468834D01*
X411684Y468093D01*
X412375Y467306D01*
X413013Y466475D01*
X413595Y465604D01*
X414118Y464696D01*
X414582Y463757D01*
X414983Y462789D01*
X415319Y461797D01*
X415590Y460785D01*
X415795Y459758D01*
X415932Y458719D01*
X416000Y457674D01*
X416000Y456626D01*
X415932Y455581D01*
X415795Y454542D01*
X415590Y453515D01*
X415319Y452503D01*
X414983Y451511D01*
X414582Y450543D01*
X414118Y449604D01*
X413595Y448696D01*
X413013Y447825D01*
X412375Y446994D01*
X411684Y446207D01*
X410943Y445466D01*
X410156Y444775D01*
X409325Y444138D01*
X408454Y443556D01*
X407546Y443032D01*
X406607Y442568D01*
X405639Y442167D01*
X404647Y441831D01*
X403635Y441560D01*
X402608Y441355D01*
X401569Y441219D01*
X400524Y441150D01*
X399476Y441150D01*
X398431Y441219D01*
X397392Y441355D01*
X396365Y441560D01*
X395353Y441831D01*
X394361Y442167D01*
X393393Y442568D01*
X392454Y443032D01*
X391546Y443556D01*
X390675Y444138D01*
X389844Y444775D01*
X389057Y445466D01*
X388316Y446207D01*
X387625Y446994D01*
X386988Y447825D01*
X386406Y448696D01*
X385882Y449604D01*
X385418Y450543D01*
X385017Y451511D01*
X384681Y452503D01*
X384410Y453515D01*
X384205Y454542D01*
X384069Y455581D01*
X384000Y456626D01*
X384000Y457674D01*
X384069Y458719D01*
X384205Y459758D01*
X384410Y460785D01*
X384681Y461797D01*
X385017Y462789D01*
X385418Y463757D01*
X385882Y464696D01*
X386406Y465604D01*
X386988Y466475D01*
X387625Y467306D01*
X388316Y468093D01*
X389057Y468834D01*
X389844Y469525D01*
X390675Y470163D01*
X391546Y470745D01*
X392454Y471268D01*
X393393Y471732D01*
X394361Y472133D01*
X395353Y472469D01*
X396365Y472740D01*
X397392Y472945D01*
X398431Y473082D01*
X399476Y473150D01*
X400524Y473150D01*
X600524Y358850D02*
X601569Y358782D01*
X602608Y358645D01*
X603635Y358440D01*
X604647Y358169D01*
X605639Y357833D01*
X606607Y357432D01*
X607546Y356968D01*
X608454Y356445D01*
X609325Y355863D01*
X610156Y355225D01*
X610943Y354534D01*
X611684Y353793D01*
X612375Y353006D01*
X613013Y352175D01*
X613595Y351304D01*
X614118Y350396D01*
X614582Y349457D01*
X614983Y348489D01*
X615319Y347497D01*
X615590Y346485D01*
X615795Y345458D01*
X615932Y344419D01*
X616000Y343374D01*
X616000Y342326D01*
X615932Y341281D01*
X615795Y340242D01*
X615590Y339215D01*
X615319Y338203D01*
X614983Y337211D01*
X614582Y336243D01*
X614118Y335304D01*
X613595Y334396D01*
X613013Y333525D01*
X612375Y332694D01*
X611684Y331907D01*
X610943Y331166D01*
X610156Y330475D01*
X609325Y329838D01*
X608454Y329256D01*
X607546Y328732D01*
X606607Y328268D01*
X605639Y327867D01*
X604647Y327531D01*
X603635Y327260D01*
X602608Y327055D01*
X601569Y326919D01*
X600524Y326850D01*
X599476Y326850D01*
X598431Y326919D01*
X597392Y327055D01*
X596365Y327260D01*
X595353Y327531D01*
X594361Y327867D01*
X593393Y328268D01*
X592454Y328732D01*
X591546Y329256D01*
X590675Y329838D01*
X589844Y330475D01*
X589057Y331166D01*
X588316Y331907D01*
X587625Y332694D01*
X586988Y333525D01*
X586406Y334396D01*
X585882Y335304D01*
X585418Y336243D01*
X585017Y337211D01*
X584681Y338203D01*
X584410Y339215D01*
X584205Y340242D01*
X584069Y341281D01*
X584000Y342326D01*
X584000Y343374D01*
X584069Y344419D01*
X584205Y345458D01*
X584410Y346485D01*
X584681Y347497D01*
X585017Y348489D01*
X585418Y349457D01*
X585882Y350396D01*
X586406Y351304D01*
X586988Y352175D01*
X587625Y353006D01*
X588316Y353793D01*
X589057Y354534D01*
X589844Y355225D01*
X590675Y355863D01*
X591546Y356445D01*
X592454Y356968D01*
X593393Y357432D01*
X594361Y357833D01*
X595353Y358169D01*
X596365Y358440D01*
X597392Y358645D01*
X598431Y358782D01*
X599476Y358850D01*
X600524Y358850D01*
X600524Y473150D02*
X601569Y473082D01*
X602608Y472945D01*
X603635Y472740D01*
X604647Y472469D01*
X605639Y472133D01*
X606607Y471732D01*
X607546Y471268D01*
X608454Y470745D01*
X609325Y470163D01*
X610156Y469525D01*
X610943Y468834D01*
X611684Y468093D01*
X612375Y467306D01*
X613013Y466475D01*
X613595Y465604D01*
X614118Y464696D01*
X614582Y463757D01*
X614983Y462789D01*
X615319Y461797D01*
X615590Y460785D01*
X615795Y459758D01*
X615932Y458719D01*
X616000Y457674D01*
X616000Y456626D01*
X615932Y455581D01*
X615795Y454542D01*
X615590Y453515D01*
X615319Y452503D01*
X614983Y451511D01*
X614582Y450543D01*
X614118Y449604D01*
X613595Y448696D01*
X613013Y447825D01*
X612375Y446994D01*
X611684Y446207D01*
X610943Y445466D01*
X610156Y444775D01*
X609325Y444138D01*
X608454Y443556D01*
X607546Y443032D01*
X606607Y442568D01*
X605639Y442167D01*
X604647Y441831D01*
X603635Y441560D01*
X602608Y441355D01*
X601569Y441219D01*
X600524Y441150D01*
X599476Y441150D01*
X598431Y441219D01*
X597392Y441355D01*
X596365Y441560D01*
X595353Y441831D01*
X594361Y442167D01*
X593393Y442568D01*
X592454Y443032D01*
X591546Y443556D01*
X590675Y444138D01*
X589844Y444775D01*
X589057Y445466D01*
X588316Y446207D01*
X587625Y446994D01*
X586988Y447825D01*
X586406Y448696D01*
X585882Y449604D01*
X585418Y450543D01*
X585017Y451511D01*
X584681Y452503D01*
X584410Y453515D01*
X584205Y454542D01*
X584069Y455581D01*
X584000Y456626D01*
X584000Y457674D01*
X584069Y458719D01*
X584205Y459758D01*
X584410Y460785D01*
X584681Y461797D01*
X585017Y462789D01*
X585418Y463757D01*
X585882Y464696D01*
X586406Y465604D01*
X586988Y466475D01*
X587625Y467306D01*
X588316Y468093D01*
X589057Y468834D01*
X589844Y469525D01*
X590675Y470163D01*
X591546Y470745D01*
X592454Y471268D01*
X593393Y471732D01*
X594361Y472133D01*
X595353Y472469D01*
X596365Y472740D01*
X597392Y472945D01*
X598431Y473082D01*
X599476Y473150D01*
X600524Y473150D01*
X800524Y358850D02*
X801569Y358782D01*
X802608Y358645D01*
X803635Y358440D01*
X804647Y358169D01*
X805639Y357833D01*
X806607Y357432D01*
X807546Y356968D01*
X808454Y356445D01*
X809325Y355863D01*
X810156Y355225D01*
X810943Y354534D01*
X811684Y353793D01*
X812375Y353006D01*
X813013Y352175D01*
X813595Y351304D01*
X814118Y350396D01*
X814582Y349457D01*
X814983Y348489D01*
X815319Y347497D01*
X815590Y346485D01*
X815795Y345458D01*
X815932Y344419D01*
X816000Y343374D01*
X816000Y342326D01*
X815932Y341281D01*
X815795Y340242D01*
X815590Y339215D01*
X815319Y338203D01*
X814983Y337211D01*
X814582Y336243D01*
X814118Y335304D01*
X813595Y334396D01*
X813013Y333525D01*
X812375Y332694D01*
X811684Y331907D01*
X810943Y331166D01*
X810156Y330475D01*
X809325Y329838D01*
X808454Y329256D01*
X807546Y328732D01*
X806607Y328268D01*
X805639Y327867D01*
X804647Y327531D01*
X803635Y327260D01*
X802608Y327055D01*
X801569Y326919D01*
X800524Y326850D01*
X799476Y326850D01*
X798431Y326919D01*
X797392Y327055D01*
X796365Y327260D01*
X795353Y327531D01*
X794361Y327867D01*
X793393Y328268D01*
X792454Y328732D01*
X791546Y329256D01*
X790675Y329838D01*
X789844Y330475D01*
X789057Y331166D01*
X788316Y331907D01*
X787625Y332694D01*
X786988Y333525D01*
X786406Y334396D01*
X785882Y335304D01*
X785418Y336243D01*
X785017Y337211D01*
X784681Y338203D01*
X784410Y339215D01*
X784205Y340242D01*
X784069Y341281D01*
X784000Y342326D01*
X784000Y343374D01*
X784069Y344419D01*
X784205Y345458D01*
X784410Y346485D01*
X784681Y347497D01*
X785017Y348489D01*
X785418Y349457D01*
X785882Y350396D01*
X786406Y351304D01*
X786988Y352175D01*
X787625Y353006D01*
X788316Y353793D01*
X789057Y354534D01*
X789844Y355225D01*
X790675Y355863D01*
X791546Y356445D01*
X792454Y356968D01*
X793393Y357432D01*
X794361Y357833D01*
X795353Y358169D01*
X796365Y358440D01*
X797392Y358645D01*
X798431Y358782D01*
X799476Y358850D01*
X800524Y358850D01*
X800524Y473150D02*
X801569Y473082D01*
X802608Y472945D01*
X803635Y472740D01*
X804647Y472469D01*
X805639Y472133D01*
X806607Y471732D01*
X807546Y471268D01*
X808454Y470745D01*
X809325Y470163D01*
X810156Y469525D01*
X810943Y468834D01*
X811684Y468093D01*
X812375Y467306D01*
X813013Y466475D01*
X813595Y465604D01*
X814118Y464696D01*
X814582Y463757D01*
X814983Y462789D01*
X815319Y461797D01*
X815590Y460785D01*
X815795Y459758D01*
X815932Y458719D01*
X816000Y457674D01*
X816000Y456626D01*
X815932Y455581D01*
X815795Y454542D01*
X815590Y453515D01*
X815319Y452503D01*
X814983Y451511D01*
X814582Y450543D01*
X814118Y449604D01*
X813595Y448696D01*
X813013Y447825D01*
X812375Y446994D01*
X811684Y446207D01*
X810943Y445466D01*
X810156Y444775D01*
X809325Y444138D01*
X808454Y443556D01*
X807546Y443032D01*
X806607Y442568D01*
X805639Y442167D01*
X804647Y441831D01*
X803635Y441560D01*
X802608Y441355D01*
X801569Y441219D01*
X800524Y441150D01*
X799476Y441150D01*
X798431Y441219D01*
X797392Y441355D01*
X796365Y441560D01*
X795353Y441831D01*
X794361Y442167D01*
X793393Y442568D01*
X792454Y443032D01*
X791546Y443556D01*
X790675Y444138D01*
X789844Y444775D01*
X789057Y445466D01*
X788316Y446207D01*
X787625Y446994D01*
X786988Y447825D01*
X786406Y448696D01*
X785882Y449604D01*
X785418Y450543D01*
X785017Y451511D01*
X784681Y452503D01*
X784410Y453515D01*
X784205Y454542D01*
X784069Y455581D01*
X784000Y456626D01*
X784000Y457674D01*
X784069Y458719D01*
X784205Y459758D01*
X784410Y460785D01*
X784681Y461797D01*
X785017Y462789D01*
X785418Y463757D01*
X785882Y464696D01*
X786406Y465604D01*
X786988Y466475D01*
X787625Y467306D01*
X788316Y468093D01*
X789057Y468834D01*
X789844Y469525D01*
X790675Y470163D01*
X791546Y470745D01*
X792454Y471268D01*
X793393Y471732D01*
X794361Y472133D01*
X795353Y472469D01*
X796365Y472740D01*
X797392Y472945D01*
X798431Y473082D01*
X799476Y473150D01*
X800524Y473150D01*
X800524Y158850D02*
X801569Y158782D01*
X802608Y158645D01*
X803635Y158440D01*
X804647Y158169D01*
X805639Y157833D01*
X806607Y157432D01*
X807546Y156968D01*
X808454Y156445D01*
X809325Y155863D01*
X810156Y155225D01*
X810943Y154534D01*
X811684Y153793D01*
X812375Y153006D01*
X813013Y152175D01*
X813595Y151304D01*
X814118Y150396D01*
X814582Y149457D01*
X814983Y148489D01*
X815319Y147497D01*
X815590Y146485D01*
X815795Y145458D01*
X815932Y144419D01*
X816000Y143374D01*
X816000Y142326D01*
X815932Y141281D01*
X815795Y140242D01*
X815590Y139215D01*
X815319Y138203D01*
X814983Y137211D01*
X814582Y136243D01*
X814118Y135304D01*
X813595Y134396D01*
X813013Y133525D01*
X812375Y132694D01*
X811684Y131907D01*
X810943Y131166D01*
X810156Y130475D01*
X809325Y129838D01*
X808454Y129256D01*
X807546Y128732D01*
X806607Y128268D01*
X805639Y127867D01*
X804647Y127531D01*
X803635Y127260D01*
X802608Y127055D01*
X801569Y126919D01*
X800524Y126850D01*
X799476Y126850D01*
X798431Y126919D01*
X797392Y127055D01*
X796365Y127260D01*
X795353Y127531D01*
X794361Y127867D01*
X793393Y128268D01*
X792454Y128732D01*
X791546Y129256D01*
X790675Y129838D01*
X789844Y130475D01*
X789057Y131166D01*
X788316Y131907D01*
X787625Y132694D01*
X786988Y133525D01*
X786406Y134396D01*
X785882Y135304D01*
X785418Y136243D01*
X785017Y137211D01*
X784681Y138203D01*
X784410Y139215D01*
X784205Y140242D01*
X784069Y141281D01*
X784000Y142326D01*
X784000Y143374D01*
X784069Y144419D01*
X784205Y145458D01*
X784410Y146485D01*
X784681Y147497D01*
X785017Y148489D01*
X785418Y149457D01*
X785882Y150396D01*
X786406Y151304D01*
X786988Y152175D01*
X787625Y153006D01*
X788316Y153793D01*
X789057Y154534D01*
X789844Y155225D01*
X790675Y155863D01*
X791546Y156445D01*
X792454Y156968D01*
X793393Y157432D01*
X794361Y157833D01*
X795353Y158169D01*
X796365Y158440D01*
X797392Y158645D01*
X798431Y158782D01*
X799476Y158850D01*
X800524Y158850D01*
X800524Y273150D02*
X801569Y273082D01*
X802608Y272945D01*
X803635Y272740D01*
X804647Y272469D01*
X805639Y272133D01*
X806607Y271732D01*
X807546Y271268D01*
X808454Y270745D01*
X809325Y270163D01*
X810156Y269525D01*
X810943Y268834D01*
X811684Y268093D01*
X812375Y267306D01*
X813013Y266475D01*
X813595Y265604D01*
X814118Y264696D01*
X814582Y263757D01*
X814983Y262789D01*
X815319Y261797D01*
X815590Y260785D01*
X815795Y259758D01*
X815932Y258719D01*
X816000Y257674D01*
X816000Y256626D01*
X815932Y255581D01*
X815795Y254542D01*
X815590Y253515D01*
X815319Y252503D01*
X814983Y251511D01*
X814582Y250543D01*
X814118Y249604D01*
X813595Y248696D01*
X813013Y247825D01*
X812375Y246994D01*
X811684Y246207D01*
X810943Y245466D01*
X810156Y244775D01*
X809325Y244138D01*
X808454Y243556D01*
X807546Y243032D01*
X806607Y242568D01*
X805639Y242167D01*
X804647Y241831D01*
X803635Y241560D01*
X802608Y241355D01*
X801569Y241219D01*
X800524Y241150D01*
X799476Y241150D01*
X798431Y241219D01*
X797392Y241355D01*
X796365Y241560D01*
X795353Y241831D01*
X794361Y242167D01*
X793393Y242568D01*
X792454Y243032D01*
X791546Y243556D01*
X790675Y244138D01*
X789844Y244775D01*
X789057Y245466D01*
X788316Y246207D01*
X787625Y246994D01*
X786988Y247825D01*
X786406Y248696D01*
X785882Y249604D01*
X785418Y250543D01*
X785017Y251511D01*
X784681Y252503D01*
X784410Y253515D01*
X784205Y254542D01*
X784069Y255581D01*
X784000Y256626D01*
X784000Y257674D01*
X784069Y258719D01*
X784205Y259758D01*
X784410Y260785D01*
X784681Y261797D01*
X785017Y262789D01*
X785418Y263757D01*
X785882Y264696D01*
X786406Y265604D01*
X786988Y266475D01*
X787625Y267306D01*
X788316Y268093D01*
X789057Y268834D01*
X789844Y269525D01*
X790675Y270163D01*
X791546Y270745D01*
X792454Y271268D01*
X793393Y271732D01*
X794361Y272133D01*
X795353Y272469D01*
X796365Y272740D01*
X797392Y272945D01*
X798431Y273082D01*
X799476Y273150D01*
X800524Y273150D01*
X600524Y158850D02*
X601569Y158782D01*
X602608Y158645D01*
X603635Y158440D01*
X604647Y158169D01*
X605639Y157833D01*
X606607Y157432D01*
X607546Y156968D01*
X608454Y156445D01*
X609325Y155863D01*
X610156Y155225D01*
X610943Y154534D01*
X611684Y153793D01*
X612375Y153006D01*
X613013Y152175D01*
X613595Y151304D01*
X614118Y150396D01*
X614582Y149457D01*
X614983Y148489D01*
X615319Y147497D01*
X615590Y146485D01*
X615795Y145458D01*
X615932Y144419D01*
X616000Y143374D01*
X616000Y142326D01*
X615932Y141281D01*
X615795Y140242D01*
X615590Y139215D01*
X615319Y138203D01*
X614983Y137211D01*
X614582Y136243D01*
X614118Y135304D01*
X613595Y134396D01*
X613013Y133525D01*
X612375Y132694D01*
X611684Y131907D01*
X610943Y131166D01*
X610156Y130475D01*
X609325Y129838D01*
X608454Y129256D01*
X607546Y128732D01*
X606607Y128268D01*
X605639Y127867D01*
X604647Y127531D01*
X603635Y127260D01*
X602608Y127055D01*
X601569Y126919D01*
X600524Y126850D01*
X599476Y126850D01*
X598431Y126919D01*
X597392Y127055D01*
X596365Y127260D01*
X595353Y127531D01*
X594361Y127867D01*
X593393Y128268D01*
X592454Y128732D01*
X591546Y129256D01*
X590675Y129838D01*
X589844Y130475D01*
X589057Y131166D01*
X588316Y131907D01*
X587625Y132694D01*
X586988Y133525D01*
X586406Y134396D01*
X585882Y135304D01*
X585418Y136243D01*
X585017Y137211D01*
X584681Y138203D01*
X584410Y139215D01*
X584205Y140242D01*
X584069Y141281D01*
X584000Y142326D01*
X584000Y143374D01*
X584069Y144419D01*
X584205Y145458D01*
X584410Y146485D01*
X584681Y147497D01*
X585017Y148489D01*
X585418Y149457D01*
X585882Y150396D01*
X586406Y151304D01*
X586988Y152175D01*
X587625Y153006D01*
X588316Y153793D01*
X589057Y154534D01*
X589844Y155225D01*
X590675Y155863D01*
X591546Y156445D01*
X592454Y156968D01*
X593393Y157432D01*
X594361Y157833D01*
X595353Y158169D01*
X596365Y158440D01*
X597392Y158645D01*
X598431Y158782D01*
X599476Y158850D01*
X600524Y158850D01*
X600524Y273150D02*
X601569Y273082D01*
X602608Y272945D01*
X603635Y272740D01*
X604647Y272469D01*
X605639Y272133D01*
X606607Y271732D01*
X607546Y271268D01*
X608454Y270745D01*
X609325Y270163D01*
X610156Y269525D01*
X610943Y268834D01*
X611684Y268093D01*
X612375Y267306D01*
X613013Y266475D01*
X613595Y265604D01*
X614118Y264696D01*
X614582Y263757D01*
X614983Y262789D01*
X615319Y261797D01*
X615590Y260785D01*
X615795Y259758D01*
X615932Y258719D01*
X616000Y257674D01*
X616000Y256626D01*
X615932Y255581D01*
X615795Y254542D01*
X615590Y253515D01*
X615319Y252503D01*
X614983Y251511D01*
X614582Y250543D01*
X614118Y249604D01*
X613595Y248696D01*
X613013Y247825D01*
X612375Y246994D01*
X611684Y246207D01*
X610943Y245466D01*
X610156Y244775D01*
X609325Y244138D01*
X608454Y243556D01*
X607546Y243032D01*
X606607Y242568D01*
X605639Y242167D01*
X604647Y241831D01*
X603635Y241560D01*
X602608Y241355D01*
X601569Y241219D01*
X600524Y241150D01*
X599476Y241150D01*
X598431Y241219D01*
X597392Y241355D01*
X596365Y241560D01*
X595353Y241831D01*
X594361Y242167D01*
X593393Y242568D01*
X592454Y243032D01*
X591546Y243556D01*
X590675Y244138D01*
X589844Y244775D01*
X589057Y245466D01*
X588316Y246207D01*
X587625Y246994D01*
X586988Y247825D01*
X586406Y248696D01*
X585882Y249604D01*
X585418Y250543D01*
X585017Y251511D01*
X584681Y252503D01*
X584410Y253515D01*
X584205Y254542D01*
X584069Y255581D01*
X584000Y256626D01*
X584000Y257674D01*
X584069Y258719D01*
X584205Y259758D01*
X584410Y260785D01*
X584681Y261797D01*
X585017Y262789D01*
X585418Y263757D01*
X585882Y264696D01*
X586406Y265604D01*
X586988Y266475D01*
X587625Y267306D01*
X588316Y268093D01*
X589057Y268834D01*
X589844Y269525D01*
X590675Y270163D01*
X591546Y270745D01*
X592454Y271268D01*
X593393Y271732D01*
X594361Y272133D01*
X595353Y272469D01*
X596365Y272740D01*
X597392Y272945D01*
X598431Y273082D01*
X599476Y273150D01*
X600524Y273150D01*
X400524Y158850D02*
X401569Y158782D01*
X402608Y158645D01*
X403635Y158440D01*
X404647Y158169D01*
X405639Y157833D01*
X406607Y157432D01*
X407546Y156968D01*
X408454Y156445D01*
X409325Y155863D01*
X410156Y155225D01*
X410943Y154534D01*
X411684Y153793D01*
X412375Y153006D01*
X413013Y152175D01*
X413595Y151304D01*
X414118Y150396D01*
X414582Y149457D01*
X414983Y148489D01*
X415319Y147497D01*
X415590Y146485D01*
X415795Y145458D01*
X415932Y144419D01*
X416000Y143374D01*
X416000Y142326D01*
X415932Y141281D01*
X415795Y140242D01*
X415590Y139215D01*
X415319Y138203D01*
X414983Y137211D01*
X414582Y136243D01*
X414118Y135304D01*
X413595Y134396D01*
X413013Y133525D01*
X412375Y132694D01*
X411684Y131907D01*
X410943Y131166D01*
X410156Y130475D01*
X409325Y129838D01*
X408454Y129256D01*
X407546Y128732D01*
X406607Y128268D01*
X405639Y127867D01*
X404647Y127531D01*
X403635Y127260D01*
X402608Y127055D01*
X401569Y126919D01*
X400524Y126850D01*
X399476Y126850D01*
X398431Y126919D01*
X397392Y127055D01*
X396365Y127260D01*
X395353Y127531D01*
X394361Y127867D01*
X393393Y128268D01*
X392454Y128732D01*
X391546Y129256D01*
X390675Y129838D01*
X389844Y130475D01*
X389057Y131166D01*
X388316Y131907D01*
X387625Y132694D01*
X386988Y133525D01*
X386406Y134396D01*
X385882Y135304D01*
X385418Y136243D01*
X385017Y137211D01*
X384681Y138203D01*
X384410Y139215D01*
X384205Y140242D01*
X384069Y141281D01*
X384000Y142326D01*
X384000Y143374D01*
X384069Y144419D01*
X384205Y145458D01*
X384410Y146485D01*
X384681Y147497D01*
X385017Y148489D01*
X385418Y149457D01*
X385882Y150396D01*
X386406Y151304D01*
X386988Y152175D01*
X387625Y153006D01*
X388316Y153793D01*
X389057Y154534D01*
X389844Y155225D01*
X390675Y155863D01*
X391546Y156445D01*
X392454Y156968D01*
X393393Y157432D01*
X394361Y157833D01*
X395353Y158169D01*
X396365Y158440D01*
X397392Y158645D01*
X398431Y158782D01*
X399476Y158850D01*
X400524Y158850D01*
X400524Y273150D02*
X401569Y273082D01*
X402608Y272945D01*
X403635Y272740D01*
X404647Y272469D01*
X405639Y272133D01*
X406607Y271732D01*
X407546Y271268D01*
X408454Y270745D01*
X409325Y270163D01*
X410156Y269525D01*
X410943Y268834D01*
X411684Y268093D01*
X412375Y267306D01*
X413013Y266475D01*
X413595Y265604D01*
X414118Y264696D01*
X414582Y263757D01*
X414983Y262789D01*
X415319Y261797D01*
X415590Y260785D01*
X415795Y259758D01*
X415932Y258719D01*
X416000Y257674D01*
X416000Y256626D01*
X415932Y255581D01*
X415795Y254542D01*
X415590Y253515D01*
X415319Y252503D01*
X414983Y251511D01*
X414582Y250543D01*
X414118Y249604D01*
X413595Y248696D01*
X413013Y247825D01*
X412375Y246994D01*
X411684Y246207D01*
X410943Y245466D01*
X410156Y244775D01*
X409325Y244138D01*
X408454Y243556D01*
X407546Y243032D01*
X406607Y242568D01*
X405639Y242167D01*
X404647Y241831D01*
X403635Y241560D01*
X402608Y241355D01*
X401569Y241219D01*
X400524Y241150D01*
X399476Y241150D01*
X398431Y241219D01*
X397392Y241355D01*
X396365Y241560D01*
X395353Y241831D01*
X394361Y242167D01*
X393393Y242568D01*
X392454Y243032D01*
X391546Y243556D01*
X390675Y244138D01*
X389844Y244775D01*
X389057Y245466D01*
X388316Y246207D01*
X387625Y246994D01*
X386988Y247825D01*
X386406Y248696D01*
X385882Y249604D01*
X385418Y250543D01*
X385017Y251511D01*
X384681Y252503D01*
X384410Y253515D01*
X384205Y254542D01*
X384069Y255581D01*
X384000Y256626D01*
X384000Y257674D01*
X384069Y258719D01*
X384205Y259758D01*
X384410Y260785D01*
X384681Y261797D01*
X385017Y262789D01*
X385418Y263757D01*
X385882Y264696D01*
X386406Y265604D01*
X386988Y266475D01*
X387625Y267306D01*
X388316Y268093D01*
X389057Y268834D01*
X389844Y269525D01*
X390675Y270163D01*
X391546Y270745D01*
X392454Y271268D01*
X393393Y271732D01*
X394361Y272133D01*
X395353Y272469D01*
X396365Y272740D01*
X397392Y272945D01*
X398431Y273082D01*
X399476Y273150D01*
X400524Y273150D01*
X200524Y158850D02*
X201569Y158782D01*
X202608Y158645D01*
X203635Y158440D01*
X204647Y158169D01*
X205639Y157833D01*
X206607Y157432D01*
X207546Y156968D01*
X208454Y156445D01*
X209325Y155863D01*
X210156Y155225D01*
X210943Y154534D01*
X211684Y153793D01*
X212375Y153006D01*
X213013Y152175D01*
X213595Y151304D01*
X214118Y150396D01*
X214582Y149457D01*
X214983Y148489D01*
X215319Y147497D01*
X215590Y146485D01*
X215795Y145458D01*
X215932Y144419D01*
X216000Y143374D01*
X216000Y142326D01*
X215932Y141281D01*
X215795Y140242D01*
X215590Y139215D01*
X215319Y138203D01*
X214983Y137211D01*
X214582Y136243D01*
X214118Y135304D01*
X213595Y134396D01*
X213013Y133525D01*
X212375Y132694D01*
X211684Y131907D01*
X210943Y131166D01*
X210156Y130475D01*
X209325Y129838D01*
X208454Y129256D01*
X207546Y128732D01*
X206607Y128268D01*
X205639Y127867D01*
X204647Y127531D01*
X203635Y127260D01*
X202608Y127055D01*
X201569Y126919D01*
X200524Y126850D01*
X199476Y126850D01*
X198431Y126919D01*
X197392Y127055D01*
X196365Y127260D01*
X195353Y127531D01*
X194361Y127867D01*
X193393Y128268D01*
X192454Y128732D01*
X191546Y129256D01*
X190675Y129838D01*
X189844Y130475D01*
X189057Y131166D01*
X188316Y131907D01*
X187625Y132694D01*
X186988Y133525D01*
X186406Y134396D01*
X185882Y135304D01*
X185418Y136243D01*
X185017Y137211D01*
X184681Y138203D01*
X184410Y139215D01*
X184205Y140242D01*
X184069Y141281D01*
X184000Y142326D01*
X184000Y143374D01*
X184069Y144419D01*
X184205Y145458D01*
X184410Y146485D01*
X184681Y147497D01*
X185017Y148489D01*
X185418Y149457D01*
X185882Y150396D01*
X186406Y151304D01*
X186988Y152175D01*
X187625Y153006D01*
X188316Y153793D01*
X189057Y154534D01*
X189844Y155225D01*
X190675Y155863D01*
X191546Y156445D01*
X192454Y156968D01*
X193393Y157432D01*
X194361Y157833D01*
X195353Y158169D01*
X196365Y158440D01*
X197392Y158645D01*
X198431Y158782D01*
X199476Y158850D01*
X200524Y158850D01*
X200524Y273150D02*
X201569Y273082D01*
X202608Y272945D01*
X203635Y272740D01*
X204647Y272469D01*
X205639Y272133D01*
X206607Y271732D01*
X207546Y271268D01*
X208454Y270745D01*
X209325Y270163D01*
X210156Y269525D01*
X210943Y268834D01*
X211684Y268093D01*
X212375Y267306D01*
X213013Y266475D01*
X213595Y265604D01*
X214118Y264696D01*
X214582Y263757D01*
X214983Y262789D01*
X215319Y261797D01*
X215590Y260785D01*
X215795Y259758D01*
X215932Y258719D01*
X216000Y257674D01*
X216000Y256626D01*
X215932Y255581D01*
X215795Y254542D01*
X215590Y253515D01*
X215319Y252503D01*
X214983Y251511D01*
X214582Y250543D01*
X214118Y249604D01*
X213595Y248696D01*
X213013Y247825D01*
X212375Y246994D01*
X211684Y246207D01*
X210943Y245466D01*
X210156Y244775D01*
X209325Y244138D01*
X208454Y243556D01*
X207546Y243032D01*
X206607Y242568D01*
X205639Y242167D01*
X204647Y241831D01*
X203635Y241560D01*
X202608Y241355D01*
X201569Y241219D01*
X200524Y241150D01*
X199476Y241150D01*
X198431Y241219D01*
X197392Y241355D01*
X196365Y241560D01*
X195353Y241831D01*
X194361Y242167D01*
X193393Y242568D01*
X192454Y243032D01*
X191546Y243556D01*
X190675Y244138D01*
X189844Y244775D01*
X189057Y245466D01*
X188316Y246207D01*
X187625Y246994D01*
X186988Y247825D01*
X186406Y248696D01*
X185882Y249604D01*
X185418Y250543D01*
X185017Y251511D01*
X184681Y252503D01*
X184410Y253515D01*
X184205Y254542D01*
X184069Y255581D01*
X184000Y256626D01*
X184000Y257674D01*
X184069Y258719D01*
X184205Y259758D01*
X184410Y260785D01*
X184681Y261797D01*
X185017Y262789D01*
X185418Y263757D01*
X185882Y264696D01*
X186406Y265604D01*
X186988Y266475D01*
X187625Y267306D01*
X188316Y268093D01*
X189057Y268834D01*
X189844Y269525D01*
X190675Y270163D01*
X191546Y270745D01*
X192454Y271268D01*
X193393Y271732D01*
X194361Y272133D01*
X195353Y272469D01*
X196365Y272740D01*
X197392Y272945D01*
X198431Y273082D01*
X199476Y273150D01*
X200524Y273150D01*
X682530Y715010D02*
X683609Y715081D01*
X684681Y715222D01*
X685741Y715433D01*
X686785Y715712D01*
X687809Y716060D01*
X688807Y716474D01*
X689777Y716952D01*
X690713Y717492D01*
X691612Y718093D01*
X692469Y718751D01*
X693282Y719464D01*
X694047Y720228D01*
X694759Y721041D01*
X695417Y721898D01*
X696018Y722797D01*
X696558Y723733D01*
X697036Y724703D01*
X697450Y725701D01*
X697798Y726725D01*
X698077Y727769D01*
X698288Y728829D01*
X698429Y729901D01*
X698500Y730980D01*
X698500Y732060D01*
X698429Y733139D01*
X698288Y734211D01*
X698077Y735271D01*
X697798Y736315D01*
X697450Y737339D01*
X697036Y738337D01*
X696558Y739307D01*
X696018Y740243D01*
X695417Y741142D01*
X694759Y741999D01*
X694047Y742812D01*
X693282Y743577D01*
X692469Y744289D01*
X691612Y744947D01*
X690713Y745548D01*
X689777Y746088D01*
X688807Y746566D01*
X687809Y746980D01*
X686785Y747328D01*
X685741Y747607D01*
X684681Y747818D01*
X683609Y747959D01*
X682530Y748030D01*
X681450Y748030D01*
X680371Y747959D01*
X679299Y747818D01*
X678239Y747607D01*
X677195Y747328D01*
X676171Y746980D01*
X675173Y746566D01*
X674203Y746088D01*
X673267Y745548D01*
X672368Y744947D01*
X671511Y744289D01*
X670698Y743577D01*
X669934Y742812D01*
X669221Y741999D01*
X668563Y741142D01*
X667962Y740243D01*
X667422Y739307D01*
X666944Y738337D01*
X666530Y737339D01*
X666182Y736315D01*
X665903Y735271D01*
X665692Y734211D01*
X665551Y733139D01*
X665480Y732060D01*
X665480Y730980D01*
X665551Y729901D01*
X665692Y728829D01*
X665903Y727769D01*
X666182Y726725D01*
X666530Y725701D01*
X666944Y724703D01*
X667422Y723733D01*
X667962Y722797D01*
X668563Y721898D01*
X669221Y721041D01*
X669934Y720228D01*
X670698Y719464D01*
X671511Y718751D01*
X672368Y718093D01*
X673267Y717492D01*
X674203Y716952D01*
X675173Y716474D01*
X676171Y716060D01*
X677195Y715712D01*
X678239Y715433D01*
X679299Y715222D01*
X680371Y715081D01*
X681450Y715010D01*
X682530Y715010D01*
M02*
