G04 EAGLE Gerber RS-274X export*
G75*
%MOMM*%
%FSLAX34Y34*%
%LPD*%
%INSoldermask Bottom*%
%IPPOS*%
%AMOC8*
5,1,8,0,0,1.08239X$1,22.5*%
G01*
%ADD10R,1.703200X1.503200*%
%ADD11R,2.633200X2.633200*%
%ADD12C,1.711200*%
%ADD13C,3.403200*%
%ADD14C,2.753200*%
%ADD15R,1.603200X1.603200*%
%ADD16C,3.203200*%
%ADD17R,2.228200X2.228200*%
%ADD18P,1.869504X8X292.500000*%
%ADD19R,5.603200X3.103200*%
%ADD20R,2.235200X0.863600*%
%ADD21C,1.879600*%
%ADD22C,3.505200*%
%ADD23R,1.503200X1.703200*%
%ADD24R,1.103200X0.803200*%
%ADD25C,1.727200*%
%ADD26P,1.869504X8X22.500000*%
%ADD27C,0.959600*%


D10*
X138070Y732610D03*
X138070Y713610D03*
D11*
X410994Y705588D03*
X410994Y768588D03*
D10*
X230545Y778968D03*
X230545Y759968D03*
D12*
X736500Y555550D03*
X711100Y568250D03*
X736500Y580950D03*
X711100Y593650D03*
X736500Y606350D03*
X711100Y619050D03*
X736500Y631750D03*
X711100Y644450D03*
D13*
X800000Y542850D03*
X800000Y657150D03*
D14*
X830500Y521250D03*
X830500Y678750D03*
D15*
X169812Y765939D03*
X131812Y765939D03*
D16*
X950000Y50000D03*
X500000Y50000D03*
X50000Y50000D03*
X950000Y750000D03*
X500000Y750000D03*
X50000Y750000D03*
D17*
X960000Y685400D03*
X960000Y660000D03*
X40000Y685400D03*
X40000Y660000D03*
D18*
X953170Y621300D03*
X953170Y595900D03*
X953170Y570500D03*
X953170Y545100D03*
X953170Y519700D03*
X953170Y494300D03*
X953170Y468900D03*
X953170Y443500D03*
X953170Y418100D03*
X953170Y392700D03*
X953170Y367300D03*
X953170Y341900D03*
X953170Y316500D03*
X953170Y291100D03*
X953170Y265700D03*
X953170Y240300D03*
X953170Y214900D03*
X953170Y189500D03*
X953170Y164100D03*
X927770Y621300D03*
X927770Y595900D03*
X927770Y570500D03*
X927770Y545100D03*
X927770Y519700D03*
X927770Y494300D03*
X927770Y468900D03*
X927770Y443500D03*
X927770Y418100D03*
X927770Y392700D03*
X927770Y367300D03*
X927770Y341900D03*
X927770Y316500D03*
X927770Y291100D03*
X927770Y265700D03*
X927770Y240300D03*
X927770Y214900D03*
X927770Y189500D03*
X927770Y164100D03*
X953170Y138700D03*
X927770Y138700D03*
D19*
X313893Y671301D03*
X313893Y770301D03*
D20*
X231044Y743290D03*
X169576Y743290D03*
X231044Y730590D03*
X231044Y717890D03*
X169576Y730590D03*
X169576Y717890D03*
X231044Y705190D03*
X169576Y705190D03*
D12*
X536500Y555550D03*
X511100Y568250D03*
X536500Y580950D03*
X511100Y593650D03*
X536500Y606350D03*
X511100Y619050D03*
X536500Y631750D03*
X511100Y644450D03*
D13*
X600000Y542850D03*
X600000Y657150D03*
D14*
X630500Y521250D03*
X630500Y678750D03*
D12*
X336500Y555550D03*
X311100Y568250D03*
X336500Y580950D03*
X311100Y593650D03*
X336500Y606350D03*
X311100Y619050D03*
X336500Y631750D03*
X311100Y644450D03*
D13*
X400000Y542850D03*
X400000Y657150D03*
D14*
X430500Y521250D03*
X430500Y678750D03*
D12*
X136500Y555550D03*
X111100Y568250D03*
X136500Y580950D03*
X111100Y593650D03*
X136500Y606350D03*
X111100Y619050D03*
X136500Y631750D03*
X111100Y644450D03*
D13*
X200000Y542850D03*
X200000Y657150D03*
D14*
X230500Y521250D03*
X230500Y678750D03*
D12*
X136500Y355550D03*
X111100Y368250D03*
X136500Y380950D03*
X111100Y393650D03*
X136500Y406350D03*
X111100Y419050D03*
X136500Y431750D03*
X111100Y444450D03*
D13*
X200000Y342850D03*
X200000Y457150D03*
D14*
X230500Y321250D03*
X230500Y478750D03*
D12*
X336500Y355550D03*
X311100Y368250D03*
X336500Y380950D03*
X311100Y393650D03*
X336500Y406350D03*
X311100Y419050D03*
X336500Y431750D03*
X311100Y444450D03*
D13*
X400000Y342850D03*
X400000Y457150D03*
D14*
X430500Y321250D03*
X430500Y478750D03*
D12*
X536500Y355550D03*
X511100Y368250D03*
X536500Y380950D03*
X511100Y393650D03*
X536500Y406350D03*
X511100Y419050D03*
X536500Y431750D03*
X511100Y444450D03*
D13*
X600000Y342850D03*
X600000Y457150D03*
D14*
X630500Y321250D03*
X630500Y478750D03*
D12*
X736500Y355550D03*
X711100Y368250D03*
X736500Y380950D03*
X711100Y393650D03*
X736500Y406350D03*
X711100Y419050D03*
X736500Y431750D03*
X711100Y444450D03*
D13*
X800000Y342850D03*
X800000Y457150D03*
D14*
X830500Y321250D03*
X830500Y478750D03*
D12*
X736500Y155550D03*
X711100Y168250D03*
X736500Y180950D03*
X711100Y193650D03*
X736500Y206350D03*
X711100Y219050D03*
X736500Y231750D03*
X711100Y244450D03*
D13*
X800000Y142850D03*
X800000Y257150D03*
D14*
X830500Y121250D03*
X830500Y278750D03*
D12*
X536500Y155550D03*
X511100Y168250D03*
X536500Y180950D03*
X511100Y193650D03*
X536500Y206350D03*
X511100Y219050D03*
X536500Y231750D03*
X511100Y244450D03*
D13*
X600000Y142850D03*
X600000Y257150D03*
D14*
X630500Y121250D03*
X630500Y278750D03*
D12*
X336500Y155550D03*
X311100Y168250D03*
X336500Y180950D03*
X311100Y193650D03*
X336500Y206350D03*
X311100Y219050D03*
X336500Y231750D03*
X311100Y244450D03*
D13*
X400000Y142850D03*
X400000Y257150D03*
D14*
X430500Y121250D03*
X430500Y278750D03*
D12*
X136500Y155550D03*
X111100Y168250D03*
X136500Y180950D03*
X111100Y193650D03*
X136500Y206350D03*
X111100Y219050D03*
X136500Y231750D03*
X111100Y244450D03*
D13*
X200000Y142850D03*
X200000Y257150D03*
D14*
X230500Y121250D03*
X230500Y278750D03*
D21*
X848868Y756920D02*
X865632Y756920D01*
X865632Y731520D02*
X848868Y731520D01*
X848868Y706120D02*
X865632Y706120D01*
D22*
X681990Y731520D03*
D23*
X856894Y776986D03*
X875894Y776986D03*
X931774Y643382D03*
X912774Y643382D03*
D10*
X889000Y716940D03*
X889000Y735940D03*
D20*
X851154Y422910D03*
X789686Y422910D03*
X851154Y410210D03*
X851154Y397510D03*
X789686Y410210D03*
X789686Y397510D03*
X851154Y384810D03*
X789686Y384810D03*
D10*
X768350Y442874D03*
X768350Y461874D03*
X763270Y394360D03*
X763270Y413360D03*
D24*
X907866Y538074D03*
X907866Y528574D03*
X907866Y519074D03*
X884866Y519074D03*
X884866Y528574D03*
X884866Y538074D03*
X900500Y429870D03*
X900500Y420370D03*
X900500Y410870D03*
X877500Y410870D03*
X877500Y420370D03*
X877500Y429870D03*
X902278Y480162D03*
X902278Y470662D03*
X902278Y461162D03*
X879278Y461162D03*
X879278Y470662D03*
X879278Y480162D03*
X908120Y585064D03*
X908120Y575564D03*
X908120Y566064D03*
X885120Y566064D03*
X885120Y575564D03*
X885120Y585064D03*
D25*
X80010Y135890D02*
X64770Y135890D01*
X64770Y161290D02*
X80010Y161290D01*
D26*
X579120Y42926D03*
X579120Y68326D03*
X604520Y42926D03*
X604520Y68326D03*
X629920Y42926D03*
X629920Y68326D03*
X655320Y42926D03*
X655320Y68326D03*
X680720Y42926D03*
X680720Y68326D03*
X706120Y42926D03*
X706120Y68326D03*
X731520Y42926D03*
X731520Y68326D03*
X756920Y42926D03*
X756920Y68326D03*
X782320Y42926D03*
X782320Y68326D03*
X807720Y42926D03*
X807720Y68326D03*
X833120Y42926D03*
X833120Y68326D03*
X858520Y42926D03*
X858520Y68326D03*
D27*
X293624Y748030D03*
X874522Y528320D03*
X910618Y417068D03*
X738632Y332486D03*
X738632Y291592D03*
X713740Y332486D03*
X713740Y290830D03*
X706882Y142748D03*
X707136Y120396D03*
X705866Y92202D03*
X778510Y116586D03*
X778510Y87884D03*
X891032Y466598D03*
X249174Y705104D03*
X315976Y724662D03*
X768604Y430022D03*
X571754Y435356D03*
X571754Y628650D03*
X910364Y429768D03*
X887476Y420906D03*
X558038Y604012D03*
X852932Y563626D03*
X884428Y557530D03*
X833120Y436372D03*
X879094Y452628D03*
X874522Y518160D03*
X860580Y518160D03*
X909066Y557276D03*
X899668Y451358D03*
X908050Y508508D03*
X901446Y402082D03*
X651256Y593090D03*
X635508Y558038D03*
X683260Y544068D03*
X731012Y502412D03*
X739394Y494030D03*
X914400Y443484D03*
X902716Y22606D03*
X775462Y373380D03*
X866648Y367030D03*
X665480Y339598D03*
X686054Y279146D03*
X695198Y263398D03*
X733552Y134112D03*
X763270Y164846D03*
X786084Y167686D03*
X842518Y303276D03*
X856996Y294640D03*
X867156Y482854D03*
M02*
