M48
;GenerationSoftware,Autodesk,EAGLE,9.2.2*%
;CreationDate,2018-12-12T03:16:44Z*%
FMAT,2
ICI,OFF
METRIC,TZ,000.000
T9C0.350
T8C1.000
T7C1.016
T6C1.118
T5C1.350
T4C1.700
T3C3.000
T2C3.200
T1C3.302
%
G90
M71
T1
X68199Y73152
T2
X60000Y45715
X80000Y65715
X60000Y34285
X40000Y45715
X40000Y34285
X60000Y54285
X60000Y65715
X40000Y54285
X20000Y25715
X40000Y65715
X20000Y14285
X40000Y25715
X40000Y14285
X60000Y25715
X60000Y14285
X80000Y25715
X80000Y14285
X80000Y45715
X80000Y34285
X20000Y54285
X20000Y65715
X20000Y34285
X20000Y45715
X80000Y54285
T3
X95000Y5000
X50000Y5000
X5000Y5000
X95000Y75000
X50000Y75000
X5000Y75000
T4
X63050Y32125
X43050Y47875
X43050Y32125
X23050Y47875
X23050Y32125
X23050Y67875
X23050Y52125
X43050Y67875
X43050Y52125
X63050Y67875
X63050Y52125
X83050Y52125
X83050Y67875
X83050Y27875
X23050Y27875
X23050Y12125
X43050Y27875
X43050Y12125
X63050Y27875
X63050Y12125
X83050Y12125
X83050Y47875
X83050Y32125
X63050Y47875
T5
X96000Y66000
X96000Y68540
X4000Y68540
X4000Y66000
T6
X85725Y73152
X85725Y70612
X85725Y75692
T7
X78232Y6833
X78232Y4293
X75692Y6833
X75692Y4293
X73152Y6833
X73152Y4293
X70612Y6833
X70612Y4293
X68072Y6833
X68072Y4293
X65532Y6833
X85852Y6833
X7239Y13589
X7239Y16129
X57912Y4293
X57912Y6833
X60452Y4293
X60452Y6833
X62992Y6833
X65532Y4293
X92777Y29110
X92777Y26570
X92777Y21490
X92777Y18950
X92777Y16410
X95317Y13870
X92777Y13870
X92777Y31650
X62992Y4293
X92777Y24030
X80772Y6833
X80772Y4293
X95317Y62130
X95317Y59590
X95317Y57050
X95317Y54510
X95317Y51970
X95317Y49430
X95317Y46890
X95317Y44350
X95317Y41810
X95317Y39270
X95317Y36730
X95317Y34190
X95317Y31650
X95317Y29110
X95317Y26570
X95317Y24030
X95317Y21490
X95317Y18950
X95317Y16410
X92777Y62130
X92777Y59590
X92777Y57050
X92777Y54510
X92777Y51970
X92777Y49430
X92777Y46890
X92777Y44350
X92777Y41810
X92777Y39270
X92777Y36730
X92777Y34190
X83312Y4293
X83312Y6833
X85852Y4293
T8
X73650Y58095
X71110Y59365
X73650Y60635
X71110Y61905
X73650Y63175
X71110Y64445
X53650Y55555
X51110Y56825
X73650Y15555
X51110Y59365
X53650Y60635
X51110Y61905
X53650Y63175
X51110Y64445
X33650Y55555
X31110Y56825
X33650Y58095
X31110Y59365
X33650Y60635
X31110Y61905
X33650Y63175
X31110Y64445
X13650Y55555
X11110Y56825
X13650Y58095
X11110Y59365
X13650Y60635
X11110Y61905
X13650Y63175
X11110Y64445
X13650Y35555
X11110Y36825
X13650Y38095
X11110Y39365
X13650Y40635
X11110Y41905
X13650Y43175
X11110Y44445
X33650Y35555
X31110Y36825
X33650Y38095
X31110Y39365
X33650Y40635
X31110Y41905
X33650Y43175
X31110Y44445
X53650Y35555
X51110Y36825
X53650Y38095
X51110Y39365
X53650Y40635
X51110Y41905
X53650Y43175
X51110Y44445
X73650Y35555
X71110Y36825
X73650Y38095
X71110Y39365
X73650Y40635
X71110Y41905
X73650Y43175
X71110Y44445
X71110Y16825
X73650Y18095
X71110Y19365
X73650Y20635
X71110Y21905
X73650Y23175
X71110Y24445
X53650Y15555
X51110Y16825
X53650Y18095
X51110Y19365
X53650Y20635
X51110Y21905
X53650Y23175
X51110Y24445
X33650Y15555
X31110Y16825
X33650Y18095
X31110Y19365
X33650Y20635
X31110Y21905
X33650Y23175
X31110Y24445
X13650Y15555
X11110Y16825
X13650Y18095
X11110Y19365
X11110Y21905
X13650Y23175
X11110Y24445
X53650Y58095
X73650Y55555
X71110Y56825
X13650Y20635
T9
X73355Y13411
X69520Y26340
X86665Y36703
X77546Y37338
X68605Y27915
X66548Y33960
X85700Y29464
X68326Y54407
X90805Y50851
X89967Y45136
X63551Y55804
X84252Y30328
X78608Y16769
X76327Y16485
X29362Y74803
X73101Y50241
X86716Y48285
X90272Y2261
X90907Y55728
X86058Y51816
X87452Y51816
X87909Y45263
X83312Y43637
X88443Y55753
X85293Y56363
X55804Y60401
X88748Y42091
X91036Y42977
X57175Y62865
X57175Y43536
X76860Y43002
X31598Y72466
X24917Y70510
X89103Y46660
X77851Y8788
X77851Y11659
X70587Y9220
X70714Y12040
X70688Y14275
X71374Y29083
X71374Y33249
X73863Y29159
X73863Y33249
X91062Y41707
X87452Y52832
X91440Y44348
X73939Y49403
X65126Y59309
X90145Y40208
M30